<mxfile host="app.diagrams.net" modified="2022-06-06T07:24:36.381Z" agent="5.0 (Macintosh; Intel Mac OS X 10_15_7) AppleWebKit/537.36 (KHTML, like Gecko) Chrome/102.0.0.0 Safari/537.36" etag="HJndIUOYbDq6Zbarn0ME" version="18.0.2" type="github">
  <diagram id="prtHgNgQTEPvFCAcTncT" name="Page-1">
    <mxGraphModel dx="1426" dy="1895" grid="1" gridSize="10" guides="1" tooltips="1" connect="1" arrows="1" fold="1" page="1" pageScale="1" pageWidth="827" pageHeight="1169" math="0" shadow="0">
      <root>
        <mxCell id="0" />
        <mxCell id="1" parent="0" />
        <mxCell id="95L0d4QCPJ5GGRwDY32Z-9" value="" style="group" vertex="1" connectable="0" parent="1">
          <mxGeometry x="200" y="-50" width="360" height="100" as="geometry" />
        </mxCell>
        <mxCell id="95L0d4QCPJ5GGRwDY32Z-6" value="" style="rounded=1;whiteSpace=wrap;html=1;" vertex="1" parent="95L0d4QCPJ5GGRwDY32Z-9">
          <mxGeometry width="360" height="100" as="geometry" />
        </mxCell>
        <mxCell id="95L0d4QCPJ5GGRwDY32Z-7" value="DCOS_WEB" style="text;html=1;strokeColor=none;fillColor=none;align=center;verticalAlign=middle;whiteSpace=wrap;rounded=0;" vertex="1" parent="95L0d4QCPJ5GGRwDY32Z-9">
          <mxGeometry x="10" y="10" width="80" height="30" as="geometry" />
        </mxCell>
        <mxCell id="95L0d4QCPJ5GGRwDY32Z-8" value="定时扩缩" style="rounded=0;whiteSpace=wrap;html=1;" vertex="1" parent="95L0d4QCPJ5GGRwDY32Z-9">
          <mxGeometry x="40" y="50" width="90" height="30" as="geometry" />
        </mxCell>
        <mxCell id="95L0d4QCPJ5GGRwDY32Z-14" value="动态扩缩" style="rounded=0;whiteSpace=wrap;html=1;" vertex="1" parent="95L0d4QCPJ5GGRwDY32Z-9">
          <mxGeometry x="180" y="50" width="90" height="30" as="geometry" />
        </mxCell>
        <mxCell id="95L0d4QCPJ5GGRwDY32Z-22" value="" style="group" vertex="1" connectable="0" parent="1">
          <mxGeometry x="90" y="130" width="370" height="210" as="geometry" />
        </mxCell>
        <mxCell id="95L0d4QCPJ5GGRwDY32Z-15" value="" style="rounded=1;whiteSpace=wrap;html=1;" vertex="1" parent="95L0d4QCPJ5GGRwDY32Z-22">
          <mxGeometry width="370" height="210" as="geometry" />
        </mxCell>
        <mxCell id="95L0d4QCPJ5GGRwDY32Z-21" value="GZ_CLUSTER" style="text;html=1;strokeColor=none;fillColor=none;align=center;verticalAlign=middle;whiteSpace=wrap;rounded=0;" vertex="1" parent="95L0d4QCPJ5GGRwDY32Z-22">
          <mxGeometry x="23" y="20" width="60" height="30" as="geometry" />
        </mxCell>
        <mxCell id="95L0d4QCPJ5GGRwDY32Z-1" value="APISERVER" style="rounded=0;whiteSpace=wrap;html=1;" vertex="1" parent="95L0d4QCPJ5GGRwDY32Z-22">
          <mxGeometry x="34" y="120" width="90" height="30" as="geometry" />
        </mxCell>
        <mxCell id="95L0d4QCPJ5GGRwDY32Z-3" value="DCOS_API" style="rounded=0;whiteSpace=wrap;html=1;" vertex="1" parent="95L0d4QCPJ5GGRwDY32Z-22">
          <mxGeometry x="124" y="40" width="90" height="30" as="geometry" />
        </mxCell>
        <mxCell id="95L0d4QCPJ5GGRwDY32Z-4" value="ECS_CONTROLLER" style="rounded=0;whiteSpace=wrap;html=1;" vertex="1" parent="95L0d4QCPJ5GGRwDY32Z-22">
          <mxGeometry x="194" y="120" width="130" height="30" as="geometry" />
        </mxCell>
        <mxCell id="95L0d4QCPJ5GGRwDY32Z-23" value="CLOUD_API" style="rounded=0;whiteSpace=wrap;html=1;" vertex="1" parent="1">
          <mxGeometry x="600" y="310" width="130" height="30" as="geometry" />
        </mxCell>
        <mxCell id="95L0d4QCPJ5GGRwDY32Z-24" value="" style="group" vertex="1" connectable="0" parent="1">
          <mxGeometry x="517" y="130" width="310" height="150" as="geometry" />
        </mxCell>
        <mxCell id="95L0d4QCPJ5GGRwDY32Z-25" value="" style="rounded=1;whiteSpace=wrap;html=1;" vertex="1" parent="95L0d4QCPJ5GGRwDY32Z-24">
          <mxGeometry width="310" height="150" as="geometry" />
        </mxCell>
        <mxCell id="95L0d4QCPJ5GGRwDY32Z-26" value="HW_CLUSTER" style="text;html=1;strokeColor=none;fillColor=none;align=center;verticalAlign=middle;whiteSpace=wrap;rounded=0;" vertex="1" parent="95L0d4QCPJ5GGRwDY32Z-24">
          <mxGeometry x="39.998378378378376" y="14.285714285714286" width="50.27027027027027" height="21.42857142857143" as="geometry" />
        </mxCell>
        <mxCell id="95L0d4QCPJ5GGRwDY32Z-30" value="APISERVER" style="rounded=0;whiteSpace=wrap;html=1;" vertex="1" parent="95L0d4QCPJ5GGRwDY32Z-24">
          <mxGeometry x="110" y="40" width="90" height="30" as="geometry" />
        </mxCell>
        <mxCell id="95L0d4QCPJ5GGRwDY32Z-31" value="NODE01" style="rounded=0;whiteSpace=wrap;html=1;" vertex="1" parent="95L0d4QCPJ5GGRwDY32Z-24">
          <mxGeometry x="30" y="102" width="60" height="30" as="geometry" />
        </mxCell>
        <mxCell id="95L0d4QCPJ5GGRwDY32Z-32" value="NODE02" style="rounded=0;whiteSpace=wrap;html=1;" vertex="1" parent="95L0d4QCPJ5GGRwDY32Z-24">
          <mxGeometry x="120" y="102" width="60" height="30" as="geometry" />
        </mxCell>
        <mxCell id="95L0d4QCPJ5GGRwDY32Z-33" value="......" style="rounded=0;whiteSpace=wrap;html=1;" vertex="1" parent="95L0d4QCPJ5GGRwDY32Z-24">
          <mxGeometry x="210" y="102" width="60" height="30" as="geometry" />
        </mxCell>
        <mxCell id="95L0d4QCPJ5GGRwDY32Z-40" value="Actor" style="shape=umlActor;verticalLabelPosition=bottom;verticalAlign=top;html=1;outlineConnect=0;" vertex="1" parent="1">
          <mxGeometry x="51" y="-29" width="30" height="60" as="geometry" />
        </mxCell>
      </root>
    </mxGraphModel>
  </diagram>
</mxfile>
